<?xml version="1.0" encoding="UTF-8"?>
<svg xmlns="http://www.w3.org/2000/svg" viewBox="0 0 282.676 300">
  <path d="M155.445,69.859c.104-1.528,1.757-2.376,2.995-1.537l12.685,8.599c.726-.613.692-.584,1.417-1.197L141.772,1.004V0l-.193.502-.193-.502v1.004l-30.771,74.719c.726.613.692.584,1.417,1.197l12.685-8.599c1.238-.839,2.891.009,2.995,1.537l10.546,201.646-18.076,25.437c1.181,1.594,1.084,1.464,2.265,3.058l19.132-7.714,19.132,7.714c1.181-1.594,1.084-1.464,2.265-3.058l-18.076-25.437,10.546-201.647Z"/>
  <path d="M165.75,90.169c-.654.113-.578.099-1.232.212l-4.898,53.789c13.555,2.514,24.52,7.338,33.41,13.447l-35.499,101.427,3.52,1.547,43.948-92.809c20.84,21.601,25.002,50.235,26.099,57.932l-73.538,50.731,4.3,5.673,120.819-79.394-.451-4.882-33.254-20.529c-4.897-13.456-14.467-28.323-29.169-40.797l13.014-27.484c.52-1.055,1.945-1.142,2.582-.157l6.52,10.093c.696-.209.663-.199,1.359-.409l-.079-62.832.293-.715-.284.297.01-.418-.293.715-43.74,43.57c.338.664.322.632.659,1.296l11.544-2.152c1.127-.21,2.056.912,1.683,2.032l-8.805,25.158c-8.308-4.877-17.733-8.992-28.344-11.959v-.002s-10.173-23.38-10.173-23.38Z"/>
  <path d="M125.314,276.58l-73.734-50.866c1.097-7.696,5.259-36.331,26.098-57.932l43.948,92.809,3.52-1.547-35.499-101.427c8.89-6.109,19.855-10.933,33.41-13.447h0s0,0,0,0l-4.898-53.789c-.654-.113-.578-.099-1.232-.212l-10.174,23.38v.002c-10.61,2.966-20.035,7.082-28.343,11.958l-8.805-25.158c-.372-1.12.557-2.242,1.683-2.032l11.544,2.152c.338-.664.322-.632.659-1.296l-43.74-43.57-.293-.715.01.418-.284-.297.293.715-.079,62.832c.696.209.663.199,1.359.409l6.52-10.093c.636-.985,2.061-.898,2.582.157l13.014,27.484c-14.702,12.474-24.272,27.341-29.169,40.797L.451,197.841l-.451,4.882,121.017,79.525,4.297-5.668Z"/>
</svg>